<?xml version="1.0" standalone="no"?>
<!DOCTYPE svg PUBLIC "-//W3C//DTD SVG 20010904//EN"
 "http://www.w3.org/TR/2001/REC-SVG-20010904/DTD/svg10.dtd">
<svg version="1.0" xmlns="http://www.w3.org/2000/svg"
 width="676.000000pt" height="659.000000pt" viewBox="0 0 676.000000 659.000000"
 preserveAspectRatio="xMidYMid meet">

<g transform="translate(0.000000,659.000000) scale(0.100000,-0.100000)"
fill="#000000" stroke="none">
<path d="M4020 5623 c-14 -10 -32 -19 -40 -20 -8 -1 -20 -10 -28 -20 -7 -10
-16 -17 -20 -16 -4 0 -6 -3 -4 -8 3 -13 -12 -11 -26 3 -21 21 -21 4 1 -42 12
-25 28 -59 35 -75 l13 -30 -25 30 c-24 28 -56 87 -69 128 -7 19 -27 24 -27 6
0 -11 -24 -39 -34 -39 -3 0 -6 9 -6 20 0 11 -7 20 -16 20 -8 0 -12 5 -9 10 3
6 1 10 -6 10 -7 0 -9 -10 -7 -24 3 -16 0 -27 -9 -30 -9 -4 -11 -14 -7 -31 5
-20 3 -24 -10 -19 -9 3 -16 1 -16 -5 0 -6 -12 -11 -27 -11 -25 1 -26 2 -11 13
18 14 8 45 -11 33 -6 -4 -11 0 -11 8 0 9 -6 16 -12 17 -7 0 -26 2 -41 3 -30 2
-53 -16 -42 -34 3 -5 -2 -10 -14 -10 -10 0 -22 6 -25 13 -3 8 -12 3 -26 -16
-12 -15 -26 -25 -31 -21 -5 3 -9 0 -9 -6 0 -6 -15 -10 -36 -8 -24 2 -38 -2
-40 -10 -1 -7 0 -8 3 -2 9 19 23 10 23 -14 0 -19 -6 -25 -32 -29 -38 -5 -48 0
-28 14 12 9 12 10 -3 5 -10 -3 -21 -6 -23 -6 -2 0 -4 -6 -4 -14 0 -8 -8 -17
-18 -20 -34 -11 -64 -122 -39 -148 12 -13 15 -106 4 -125 -9 -14 30 -24 60
-17 18 5 22 3 18 -9 -5 -10 2 -16 24 -19 17 -2 36 -1 42 3 18 11 39 -1 39 -21
0 -21 41 -34 53 -17 6 9 10 9 13 1 3 -7 14 -10 24 -7 14 4 20 0 20 -12 0 -14
3 -15 15 -5 8 7 15 10 15 6 0 -3 11 -1 25 4 18 7 32 6 45 -3 26 -16 26 -31 0
-17 -12 6 -20 7 -20 1 0 -5 -15 -8 -32 -6 -18 2 -27 1 -20 -2 6 -2 12 -11 12
-19 0 -9 11 -14 34 -14 19 0 36 -5 38 -10 2 -6 23 -12 48 -14 25 -2 65 -8 90
-14 25 -7 59 -14 75 -16 17 -2 -43 -3 -133 -1 -122 1 -166 -1 -180 -11 -16
-12 -15 -13 6 -14 15 0 21 -4 16 -11 -5 -8 -2 -9 12 -1 15 8 24 6 43 -11 l23
-22 -6 23 c-7 20 -5 21 17 13 14 -5 34 -7 44 -5 14 4 25 -3 37 -21 9 -14 22
-23 28 -19 7 4 8 -1 3 -16 -6 -19 -4 -22 12 -18 20 5 48 -17 39 -31 -3 -5 1
-12 10 -15 8 -3 13 -2 10 3 -3 4 8 8 24 9 17 0 30 -4 30 -10 0 -6 9 -8 20 -5
11 3 20 1 20 -4 0 -17 22 -9 27 10 3 11 13 21 24 24 14 4 19 14 19 41 0 34 1
35 38 34 20 0 42 1 47 2 16 5 37 7 85 10 l45 2 -44 9 c-24 5 -48 6 -52 3 -5
-3 -9 -1 -9 4 0 5 -15 13 -32 18 l-32 10 35 22 c22 13 53 22 80 23 37 0 40 2
22 9 -13 5 -23 15 -23 22 0 9 -3 9 -12 0 -13 -13 -48 -17 -48 -6 0 10 50 54
61 54 5 0 9 6 9 14 0 8 6 17 13 19 8 4 8 6 -2 6 -8 1 -25 -8 -37 -20 -23 -22
-44 -19 -44 7 0 8 9 14 20 14 11 0 20 3 20 8 0 10 58 42 76 42 8 0 14 -6 14
-12 0 -10 2 -10 8 0 6 9 21 10 59 3 27 -6 65 -8 84 -6 38 5 99 -11 99 -26 0
-6 7 -3 16 5 14 14 17 14 40 0 13 -9 24 -12 24 -8 0 5 20 -13 45 -39 25 -27
45 -52 45 -57 0 -5 6 -15 13 -22 22 -25 34 -52 52 -123 21 -86 41 -138 72
-187 25 -41 40 -48 45 -21 3 15 4 15 21 -1 29 -29 32 -10 5 26 -14 18 -27 50
-30 71 -5 41 1 47 20 17 22 -36 32 -23 26 35 -6 47 -4 55 10 55 13 0 15 4 8
18 -5 9 -7 22 -5 29 2 7 -7 15 -20 18 -25 7 -45 47 -27 53 6 2 10 8 10 13 0 6
-4 8 -9 5 -13 -9 -41 4 -41 19 0 6 -9 20 -20 30 -16 14 -17 20 -8 26 10 7 10
11 0 21 -6 6 -12 26 -13 43 0 16 -3 24 -6 18 -2 -7 -12 -13 -21 -13 -15 0 -15
2 -2 10 13 8 12 11 -4 23 -12 9 -17 20 -13 31 4 9 2 16 -3 16 -6 0 -9 6 -8 13
3 11 -2 13 -44 16 -14 1 -16 7 -12 30 3 16 1 31 -4 35 -6 3 -8 16 -5 29 5 18
3 20 -8 10 -26 -25 -40 -15 -33 23 5 27 4 35 -5 30 -6 -4 -11 -2 -11 4 0 7 -8
9 -19 5 -11 -3 -22 -1 -26 5 -3 5 -15 10 -26 10 -10 0 -19 6 -19 13 0 7 -3 8
-8 2 -12 -17 -57 -11 -56 7 1 9 -5 19 -12 22 -8 3 -14 1 -14 -4 0 -6 -8 -10
-17 -9 -11 0 -13 3 -5 6 6 2 12 9 12 15 0 6 -7 7 -16 4 -22 -8 -44 11 -37 31
5 12 2 15 -9 10 -9 -3 -25 1 -37 9 -12 9 -26 12 -34 7 -6 -4 -33 -8 -60 -8
-37 0 -47 3 -45 15 2 10 12 14 28 12 28 -4 23 5 -12 23 -13 6 -22 18 -20 27 4
28 -15 29 -32 3 -18 -27 -36 -33 -36 -11 0 9 -8 12 -26 8 -24 -4 -25 -3 -15
16 6 11 11 23 11 26 0 12 -26 6 -50 -11z m-735 -493 c3 -5 1 -10 -4 -10 -6 0
-11 5 -11 10 0 6 2 10 4 10 3 0 8 -4 11 -10z m1485 -30 c0 -5 -2 -10 -4 -10
-3 0 -8 5 -11 10 -3 6 -1 10 4 10 6 0 11 -4 11 -10z"/>
<path d="M3931 5604 c0 -11 3 -14 6 -6 3 7 2 16 -1 19 -3 4 -6 -2 -5 -13z"/>
<path d="M4200 5610 c0 -5 5 -10 10 -10 6 0 10 5 10 10 0 6 -4 10 -10 10 -5 0
-10 -4 -10 -10z"/>
<path d="M4496 5454 c-4 -10 -1 -14 6 -12 15 5 23 28 10 28 -5 0 -13 -7 -16
-16z"/>
<path d="M4697 5253 c-4 -3 -7 -11 -7 -17 0 -6 5 -5 12 2 6 6 9 14 7 17 -3 3
-9 2 -12 -2z"/>
<path d="M3190 5186 c0 -9 5 -16 10 -16 6 0 10 4 10 9 0 6 -4 13 -10 16 -5 3
-10 -1 -10 -9z"/>
<path d="M4765 5180 c-3 -5 -1 -10 4 -10 6 0 11 5 11 10 0 6 -2 10 -4 10 -3 0
-8 -4 -11 -10z"/>
<path d="M3182 5126 c1 -29 12 -45 31 -46 4 0 7 15 7 34 0 25 -5 35 -19 39
-16 4 -19 0 -19 -27z"/>
<path d="M3150 5081 c0 -5 9 -11 20 -14 24 -6 27 8 4 17 -21 8 -24 8 -24 -3z"/>
<path d="M3030 5064 c0 -20 -45 -64 -66 -64 -15 0 -20 -26 -5 -32 5 -2 5 -13
0 -27 -7 -18 -15 -22 -34 -19 -26 5 -27 3 -29 -49 -1 -23 3 -28 22 -26 l23 3
-21 -22 c-11 -12 -21 -36 -21 -52 -3 -59 -4 -64 -11 -71 -14 -14 11 -43 32
-38 21 6 25 15 36 88 11 69 11 69 13 80 5 17 19 -38 20 -75 1 -20 -4 -41 -10
-47 -6 -6 -14 -41 -19 -79 -5 -38 -12 -89 -16 -113 -5 -29 -4 -42 3 -38 6 4 8
-3 5 -18 -4 -21 -1 -24 13 -18 15 5 17 2 11 -20 -9 -38 7 -41 39 -7 16 17 23
30 17 30 -10 0 -10 5 -2 21 6 11 10 36 8 55 -1 22 3 38 12 44 10 6 16 44 22
147 7 132 18 180 63 286 5 13 2 17 -14 17 -12 0 -21 5 -21 10 0 6 -7 10 -15
10 -8 0 -19 9 -25 20 -13 24 -30 26 -30 4z m72 -86 c-6 -6 -15 -8 -19 -4 -4 4
-1 11 7 16 19 12 27 3 12 -12z m-30 -43 c-2 -14 -11 -25 -18 -25 -18 0 -18 6
3 30 22 25 21 25 15 -5z m-52 -45 c0 -5 -4 -10 -10 -10 -5 0 -10 5 -10 10 0 6
5 10 10 10 6 0 10 -4 10 -10z"/>
<path d="M4041 4817 c-14 -17 2 -33 29 -29 8 1 21 -2 29 -7 12 -8 12 -13 3
-24 -7 -8 -10 -22 -6 -31 4 -11 1 -16 -10 -16 -20 0 -20 -9 -1 -34 14 -19 15
-19 15 8 0 19 6 29 20 33 11 3 20 11 20 18 0 7 11 24 25 37 22 23 23 26 8 32
-9 4 -35 4 -59 0 -33 -5 -44 -2 -51 11 -8 14 -11 14 -22 2z"/>
<path d="M3641 4800 c9 -5 28 -6 45 0 27 8 26 8 -16 9 -32 0 -40 -2 -29 -9z"/>
<path d="M3660 4730 c0 -5 5 -10 11 -10 5 0 7 5 4 10 -3 6 -8 10 -11 10 -2 0
-4 -4 -4 -10z"/>
<path d="M4015 4710 c3 -5 8 -10 11 -10 2 0 4 5 4 10 0 6 -5 10 -11 10 -5 0
-7 -4 -4 -10z"/>
<path d="M4135 4690 c-8 -35 0 -50 23 -49 15 1 15 2 -1 6 -23 6 -16 28 8 28
23 0 32 24 14 36 -25 16 -37 10 -44 -21z"/>
<path d="M4880 4699 c0 -18 26 -56 34 -49 3 3 -4 19 -14 35 -12 18 -20 24 -20
14z"/>
<path d="M3686 4683 c-10 -25 35 -46 49 -23 10 16 25 11 25 -8 0 -25 7 -31 31
-25 26 7 24 15 -14 39 -48 31 -83 38 -91 17z"/>
<path d="M4005 4680 c3 -5 8 -10 11 -10 2 0 4 5 4 10 0 6 -5 10 -11 10 -5 0
-7 -4 -4 -10z"/>
<path d="M2913 4629 c-1 -12 3 -19 10 -16 15 5 16 29 2 34 -6 2 -11 -6 -12
-18z"/>
<path d="M3652 4641 c-7 -4 -12 -12 -10 -17 5 -15 -29 -56 -43 -53 -23 5 -59
-12 -59 -27 0 -8 -10 -14 -22 -15 -57 -2 -72 -8 -99 -39 -16 -18 -29 -37 -29
-42 0 -5 -4 -7 -9 -4 -7 5 -21 -14 -21 -28 0 -2 18 -3 40 -3 27 0 40 5 40 14
0 7 -6 13 -12 14 -7 0 14 7 47 14 33 7 63 11 67 9 4 -3 35 -7 70 -9 34 -3 71
-8 80 -11 10 -3 18 0 18 6 0 7 8 9 20 5 19 -6 20 -3 15 48 -5 43 -3 58 11 71
9 9 14 20 10 23 -3 3 -16 -6 -29 -20 -27 -32 -37 -34 -37 -6 0 16 -4 19 -20
14 -11 -4 -20 -2 -20 4 0 6 5 11 11 11 8 0 8 4 0 13 -8 10 -7 17 1 25 14 14 0
16 -20 3z"/>
<path d="M3710 4626 c0 -17 27 -29 35 -16 4 6 3 15 0 20 -9 15 -35 12 -35 -4z"/>
<path d="M4010 4629 c0 -5 5 -7 10 -4 6 3 10 8 10 11 0 2 -4 4 -10 4 -5 0 -10
-5 -10 -11z"/>
<path d="M4188 4613 c12 -5 -73 -53 -95 -53 -7 0 -13 -6 -13 -13 0 -7 6 -19
13 -26 10 -11 8 -12 -11 -6 -21 6 -23 4 -20 -17 3 -24 14 -26 73 -16 17 3 24
3 18 1 -18 -6 -16 -22 3 -30 10 -4 20 0 25 10 10 17 55 17 93 1 13 -5 21 -3
24 4 5 16 29 15 35 0 3 -10 8 -10 21 1 12 10 20 11 24 4 10 -16 58 -26 87 -19
28 7 34 31 10 40 -8 3 -15 12 -15 19 0 16 -100 64 -175 84 -52 14 -119 25 -97
16z"/>
<path d="M4910 4611 c0 -6 5 -13 10 -16 6 -3 10 1 10 9 0 9 -4 16 -10 16 -5 0
-10 -4 -10 -9z"/>
<path d="M3886 4591 c-4 -7 -5 -15 -2 -18 9 -9 19 4 14 18 -4 11 -6 11 -12 0z"/>
<path d="M3910 4581 c0 -24 18 -37 31 -24 13 13 1 43 -17 43 -8 0 -14 -9 -14
-19z"/>
<path d="M4090 4580 c0 -5 5 -10 10 -10 6 0 10 5 10 10 0 6 -4 10 -10 10 -5 0
-10 -4 -10 -10z"/>
<path d="M4835 4560 c-8 -13 13 -60 27 -60 9 0 0 50 -12 63 -4 5 -11 3 -15 -3z"/>
<path d="M3760 4519 c0 -5 5 -7 10 -4 6 3 10 8 10 11 0 2 -4 4 -10 4 -5 0 -10
-5 -10 -11z"/>
<path d="M4853 4468 c4 -10 2 -18 -4 -18 -7 0 -8 -12 -4 -30 4 -17 3 -36 -3
-43 -5 -7 -12 -22 -15 -34 -4 -18 -1 -23 14 -23 14 0 19 7 19 25 0 16 6 25 15
25 8 0 15 -5 15 -11 0 -5 4 -8 10 -4 5 3 1 19 -10 37 -13 22 -16 34 -8 39 7 5
3 15 -12 30 -17 18 -21 19 -17 7z"/>
<path d="M4275 4350 c-115 -23 -234 -61 -287 -90 -36 -20 -91 -6 -58 15 7 4 5
14 -4 27 -8 11 -12 28 -9 37 4 14 3 14 -10 -1 -8 -10 -19 -18 -25 -18 -7 0 -8
-10 -1 -32 5 -18 9 -34 9 -35 0 -9 -74 -1 -110 12 -75 26 -265 38 -413 26
-128 -11 -270 -45 -303 -72 -26 -22 -17 -107 19 -183 19 -38 37 -64 41 -58 3
6 1 23 -5 39 -6 15 -11 63 -12 105 -2 72 0 79 23 95 42 30 149 53 280 60 107
5 140 3 233 -17 87 -18 114 -28 139 -52 33 -31 33 -24 11 -170 -3 -21 -2 -38
2 -38 5 0 23 18 42 39 32 38 36 40 84 36 41 -3 56 -10 80 -34 45 -47 67 -35
44 24 -53 128 -15 185 150 230 105 29 157 35 305 38 166 2 219 -8 241 -49 16
-30 18 -109 5 -166 -7 -32 -6 -38 8 -38 9 0 16 8 16 18 0 9 9 31 20 47 15 22
20 47 20 97 0 37 -5 70 -10 73 -6 4 -42 15 -80 26 -57 16 -100 19 -237 18 -93
-1 -186 -5 -208 -9z m-415 -192 c0 -10 -7 -18 -15 -18 -11 0 -15 11 -15 38 1
35 2 36 15 18 8 -11 15 -28 15 -38z m110 -28 c26 -16 3 -22 -27 -6 -23 13 -24
15 -8 15 11 1 27 -3 35 -9z"/>
<path d="M2940 4330 c0 -19 3 -21 12 -12 9 9 9 15 0 24 -9 9 -12 7 -12 -12z"/>
<path d="M3845 4330 c-3 -5 -1 -10 4 -10 6 0 11 5 11 10 0 6 -2 10 -4 10 -3 0
-8 -4 -11 -10z"/>
<path d="M4880 4319 c0 -5 5 -7 10 -4 6 3 10 8 10 11 0 2 -4 4 -10 4 -5 0 -10
-5 -10 -11z"/>
<path d="M4338 4301 c-20 -4 -54 -19 -76 -33 -26 -18 -47 -24 -65 -21 -39 8
-57 -12 -57 -62 0 -25 -5 -45 -12 -48 -10 -4 -10 -6 0 -6 6 -1 12 -9 12 -19 0
-27 48 -68 108 -91 85 -34 101 -27 98 42 -1 15 2 27 7 27 5 0 3 7 -4 16 -7 9
-12 32 -10 51 2 22 -4 41 -15 54 -25 27 -12 34 66 34 62 0 72 -3 99 -29 35
-33 52 -29 27 6 -9 12 -16 32 -16 43 0 15 -2 17 -9 6 -6 -9 -11 -10 -15 -2 -4
6 -4 11 1 11 4 1 -10 7 -32 15 -43 16 -51 16 -107 6z"/>
<path d="M3443 4243 c9 -2 17 -11 17 -20 0 -12 7 -14 31 -9 18 3 37 2 43 -3 6
-4 22 -11 36 -14 24 -6 23 -5 -8 23 -28 26 -40 30 -85 29 -28 -1 -44 -3 -34
-6z"/>
<path d="M3340 4147 c0 -17 1 -17 17 -1 12 12 18 13 21 4 2 -6 0 -16 -6 -22
-14 -14 8 -37 28 -30 13 5 13 3 1 -11 -12 -15 -11 -17 9 -17 19 0 21 4 15 23
-4 12 -8 33 -9 47 -2 22 -8 25 -39 25 -29 1 -37 -3 -37 -18z"/>
<path d="M3660 4141 c0 -11 -39 -27 -54 -22 -19 5 -86 -32 -86 -48 0 -16 53
-55 62 -46 3 3 19 7 37 9 34 4 71 31 71 52 0 7 -6 19 -13 26 -8 7 -12 19 -9
26 2 6 1 12 -2 12 -3 0 -6 -4 -6 -9z"/>
<path d="M4902 4075 c0 -16 2 -22 5 -12 2 9 2 23 0 30 -3 6 -5 -1 -5 -18z"/>
<path d="M4927 4000 c3 -25 9 -67 12 -95 7 -50 11 -47 25 18 5 20 3 27 -9 27
-9 0 -15 9 -15 25 0 16 6 25 16 25 8 0 12 5 9 11 -4 6 -13 8 -20 5 -8 -3 -16
3 -19 12 -3 9 -3 -3 1 -28z"/>
<path d="M3770 3960 c-7 -14 -20 -35 -28 -47 -24 -37 1 -26 26 12 13 19 22 40
20 47 -3 8 -10 4 -18 -12z"/>
<path d="M2953 3933 c-19 -7 -16 -54 7 -99 l19 -39 0 55 c0 63 -9 89 -26 83z"/>
<path d="M4095 3920 c3 -5 8 -10 11 -10 2 0 4 5 4 10 0 6 -5 10 -11 10 -5 0
-7 -4 -4 -10z"/>
<path d="M4218 3883 c17 -2 47 -2 65 0 17 2 3 4 -33 4 -36 0 -50 -2 -32 -4z"/>
<path d="M4838 3822 c-37 -27 -49 -52 -25 -52 13 0 77 60 77 73 0 12 -14 6
-52 -21z"/>
<path d="M4270 3745 c0 -6 23 -48 30 -55 13 -13 30 -52 30 -68 0 -11 11 -41
25 -67 20 -37 24 -54 17 -74 -5 -14 -5 -39 -1 -56 5 -16 5 -33 0 -38 -4 -4
-41 -13 -81 -19 -89 -13 -74 -27 29 -26 65 1 77 -2 92 -20 23 -29 40 -27 64 6
37 51 25 166 -26 227 -21 26 -31 55 -19 55 19 0 10 22 -11 27 -16 5 -18 8 -7
15 8 6 2 7 -19 3 -22 -4 -33 -3 -33 5 0 6 4 9 9 6 5 -3 11 1 15 9 3 10 -1 15
-12 16 -10 0 -12 3 -4 6 21 8 13 21 -12 19 -14 -2 -29 5 -37 15 -12 17 -49 27
-49 14z"/>
<path d="M3580 3640 c-8 -11 -20 -20 -27 -20 -18 0 -38 -81 -23 -90 8 -5 6 -9
-5 -14 -10 -3 -15 -12 -11 -21 3 -8 2 -15 -3 -15 -4 0 -8 -15 -9 -32 0 -18 -4
-64 -8 -102 -7 -75 6 -134 38 -163 17 -15 19 -15 33 3 8 10 15 24 15 30 0 13
43 34 70 34 11 0 47 9 79 20 33 12 87 22 120 23 51 1 65 -2 83 -21 19 -19 20
-22 5 -22 -13 0 -15 -6 -10 -32 5 -27 4 -30 -12 -25 -14 6 -16 3 -12 -12 3
-11 0 -22 -7 -24 -7 -3 -3 -18 11 -46 23 -42 23 -43 3 -48 -16 -4 -18 -9 -9
-24 5 -10 19 -19 29 -19 11 0 20 -4 20 -10 0 -5 -7 -7 -15 -4 -19 8 -19 -1 -1
-29 13 -19 13 -26 -2 -57 -10 -19 -16 -43 -14 -53 2 -11 -1 -17 -10 -15 -17 4
-61 -39 -45 -45 22 -8 1 -17 -44 -19 -24 0 -48 -6 -52 -12 -6 -8 -10 -8 -13 0
-3 7 -14 10 -24 7 -11 -3 -17 -9 -15 -14 3 -4 -11 -7 -32 -5 -25 3 -39 9 -41
20 -2 9 -8 14 -13 11 -5 -4 -9 1 -9 10 0 11 -6 14 -23 10 -18 -5 -43 9 -113
61 -49 37 -107 84 -129 105 -38 37 -65 48 -30 13 16 -17 15 -18 -16 -35 -25
-13 -37 -14 -47 -6 -11 8 -12 5 -7 -14 4 -17 0 -33 -14 -51 -22 -27 -28 -54
-11 -43 6 3 7 -1 4 -9 -3 -9 -10 -14 -14 -11 -5 3 -11 1 -14 -4 -4 -5 -2 -12
4 -16 6 -4 4 -15 -6 -30 -10 -16 -14 -35 -11 -52 l6 -28 -13 29 c-13 29 -31
22 -20 -8 4 -11 0 -16 -14 -16 -11 0 -28 -7 -36 -16 -15 -14 -16 -13 -16 6 0
17 -4 20 -22 15 -46 -14 -89 -38 -98 -55 -5 -10 -26 -21 -47 -25 -50 -9 -183
-78 -244 -127 -27 -21 -93 -61 -146 -89 -102 -53 -144 -81 -194 -130 -50 -48
-32 -54 20 -6 66 62 206 132 158 79 -10 -10 -17 -22 -17 -27 0 -5 -8 -17 -17
-28 -17 -18 -17 -19 2 -33 10 -8 25 -14 33 -14 8 0 25 -9 39 -20 30 -24 53
-26 53 -5 0 8 -4 15 -9 15 -17 0 -24 42 -10 51 8 4 14 12 15 16 1 11 51 122
68 153 8 14 29 33 46 43 34 19 53 16 32 -5 -22 -22 -12 -60 27 -109 21 -26 41
-46 43 -43 3 2 3 -7 1 -21 -3 -14 -12 -25 -19 -25 -8 0 -14 -4 -14 -10 0 -5 5
-10 10 -10 6 0 10 -7 10 -15 0 -8 -9 -15 -19 -15 -11 0 -21 -5 -23 -12 -9 -26
35 -87 72 -101 10 -4 7 -6 -7 -6 -13 -1 -23 4 -23 9 0 13 -51 13 -84 0 -22 -8
-26 -7 -26 10 0 12 -5 17 -14 14 -8 -3 -23 8 -36 26 -12 17 -25 29 -28 26 -4
-5 28 -45 94 -117 7 -9 14 -20 14 -25 0 -12 55 -54 69 -54 6 0 13 -11 17 -25
3 -13 15 -27 25 -30 10 -4 19 -10 19 -14 0 -4 16 -16 35 -27 33 -17 48 -44 25
-44 -34 0 -164 117 -247 224 -27 33 -97 61 -178 71 -33 4 -86 16 -119 26 -32
11 -71 19 -86 19 -27 0 -70 -36 -70 -58 0 -7 -9 -21 -20 -32 -11 -11 -20 -31
-20 -45 0 -20 -5 -25 -27 -26 -22 -1 -24 -3 -7 -6 14 -3 24 -14 28 -33 4 -21
10 -28 21 -24 8 3 15 1 15 -5 0 -6 -7 -11 -15 -11 -8 0 -15 -7 -15 -16 0 -15
2 -15 25 0 38 25 41 19 6 -14 -30 -30 -40 -50 -22 -50 15 0 71 -57 71 -73 0
-13 -8 -14 -37 -10 -21 3 -39 10 -41 15 -2 4 -10 8 -18 8 -8 0 -22 7 -31 16
-49 43 -97 73 -138 85 -25 7 -45 16 -45 20 0 4 -13 12 -29 17 -25 9 -29 8 -24
-4 4 -11 -4 -13 -43 -8 -78 9 -83 12 -55 35 l24 20 -60 -3 c-55 -2 -66 1 -126
39 -70 44 -114 63 -103 44 4 -6 14 -11 22 -11 8 0 14 -4 14 -8 0 -5 12 -14 27
-21 15 -7 44 -26 66 -44 35 -27 37 -32 21 -38 -11 -3 -28 -3 -39 1 -11 4 -26
5 -33 3 -7 -3 -19 2 -25 10 -18 23 -53 30 -69 14 -11 -13 -17 -13 -40 -1 -15
8 -33 12 -40 11 -7 -2 -9 -2 -5 1 5 2 -1 11 -13 19 -18 13 -24 13 -45 -1 -30
-20 -36 -20 -29 -2 3 8 -3 19 -15 26 -14 7 -21 7 -21 0 0 -5 -6 -10 -14 -10
-8 0 -28 -16 -46 -36 l-32 -37 29 -12 c34 -14 103 -77 103 -94 0 -10 13 -15
33 -12 4 0 7 -6 7 -15 0 -12 -6 -15 -22 -11 -13 3 -31 2 -42 -2 -16 -6 -13
-11 20 -36 22 -16 44 -34 49 -41 37 -42 181 -123 236 -132 23 -4 40 -11 40
-17 -1 -5 -4 -10 -8 -11 -5 0 -34 -3 -65 -8 -50 -6 -62 -5 -87 13 -16 12 -34
21 -40 21 -6 0 -11 4 -11 8 0 5 -19 15 -42 22 -24 8 -47 17 -53 20 -5 4 -27 6
-49 4 -37 -3 -44 -8 -168 -121 -25 -22 -23 -31 10 -45 15 -7 55 -31 89 -55 35
-24 63 -40 63 -36 0 4 8 -7 16 -24 9 -18 21 -33 27 -33 18 0 77 -44 77 -57 0
-7 9 -17 20 -23 26 -14 26 -30 0 -23 -11 3 -20 8 -20 12 0 14 -71 32 -123 32
-66 0 -112 -23 -126 -61 -5 -17 -14 -30 -19 -30 -5 0 -10 -21 -10 -46 -1 -25
-7 -52 -13 -60 -6 -8 -9 -27 -5 -44 3 -19 1 -30 -5 -30 -6 0 -9 -9 -6 -20 3
-13 -3 -26 -17 -38 -19 -14 -21 -22 -14 -42 5 -13 14 -27 19 -31 6 -4 1 -14
-13 -25 -14 -11 -23 -24 -21 -30 2 -6 -4 -17 -13 -25 -12 -9 -18 -10 -21 -3
-2 6 -14 9 -28 7 -15 -3 -22 -10 -18 -19 3 -8 1 -14 -5 -14 -6 0 -12 5 -14 11
-3 8 -11 8 -27 -2 -18 -11 -25 -11 -28 -2 -3 9 -10 10 -23 3 -11 -6 -23 -9
-27 -8 -5 2 -19 -7 -33 -20 -29 -27 -40 -28 -40 -4 -1 16 -1 16 -11 0 -5 -10
-17 -18 -24 -18 -8 0 -15 -7 -15 -16 0 -9 -7 -14 -17 -12 -10 1 -29 -8 -43
-20 -14 -12 -43 -38 -66 -57 -33 -28 -77 -97 -110 -175 -1 -3 125 -5 279 -5
179 0 328 -5 407 -14 l125 -15 -55 -12 c-105 -25 -112 -26 -133 -7 -15 14 -21
15 -24 5 -4 -10 -8 -10 -21 0 -24 20 -442 18 -467 -2 -10 -8 -31 -15 -48 -16
-19 -1 -38 -12 -53 -30 -27 -34 -30 -46 -9 -38 20 8 19 -5 -2 -28 -9 -10 -13
-21 -10 -24 4 -4 15 4 26 17 l19 24 26 -28 c14 -15 33 -27 42 -27 14 0 15 -2
3 -17 -11 -13 -11 -17 -1 -20 6 -3 12 -13 12 -24 0 -13 7 -19 21 -19 12 0 27
-8 34 -17 15 -20 8 -46 -9 -36 -6 4 -24 8 -40 9 -16 1 -32 8 -37 15 -6 10 -10
9 -15 -5 -7 -18 -8 -18 -20 -1 -12 16 -17 17 -39 5 -19 -10 -28 -10 -39 -1 -7
6 -27 9 -42 7 -167 -30 -191 -40 -272 -114 -19 -17 -32 -35 -28 -40 10 -9
4504 -13 4510 -4 6 10 -29 240 -54 357 -12 55 -26 123 -32 150 -5 28 -19 78
-30 113 -11 35 -17 66 -14 69 3 4 6 0 6 -8 0 -8 7 -27 16 -44 8 -16 20 -52 26
-80 6 -27 14 -54 18 -60 4 -5 15 -44 25 -85 9 -41 43 -151 74 -245 l57 -170
629 -3 c347 -1 640 0 652 3 18 4 21 9 14 23 -16 29 -24 56 -28 86 -2 17 -6 32
-11 35 -9 8 -30 40 -42 68 -5 12 -21 40 -35 62 -14 22 -25 47 -25 56 0 8 -4
15 -10 15 -5 0 -10 5 -10 11 0 6 19 -4 43 -23 41 -32 41 -32 25 -6 -20 30 -23
58 -8 58 6 0 10 -4 10 -8 0 -4 18 -27 40 -52 21 -24 42 -56 45 -72 4 -15 10
-28 15 -28 5 0 5 12 0 28 -14 44 -20 92 -12 92 7 0 23 -46 62 -180 41 -140 50
-157 90 -164 48 -8 103 -7 117 2 18 11 4 56 -28 92 -17 18 -29 41 -28 53 3 29
-11 87 -21 87 -4 0 -10 9 -13 20 -3 11 -12 20 -21 20 -10 0 -16 8 -16 21 0 15
-5 19 -15 15 -10 -4 -15 1 -15 14 0 11 -4 20 -10 20 -5 0 -10 7 -10 15 0 8 7
15 15 15 17 0 20 16 4 26 -6 3 -9 19 -7 35 3 20 0 29 -9 29 -9 0 -12 7 -9 18
5 15 0 18 -34 20 -35 3 -40 0 -42 -20 -2 -35 0 -61 7 -85 11 -34 -9 -28 -57
16 -23 22 -45 38 -50 35 -5 -3 -27 8 -50 25 -23 17 -37 31 -30 31 7 0 12 9 12
19 0 30 -99 219 -126 240 -15 12 -22 25 -18 35 5 13 -1 16 -27 17 -19 1 -26 3
-16 6 24 6 21 18 -10 51 -16 15 -36 44 -45 63 -21 40 -40 72 -49 79 -3 3 -13
19 -22 35 -18 35 -78 129 -106 166 -29 38 -101 147 -101 153 0 3 -19 34 -43
69 -24 34 -63 101 -86 147 -55 107 -74 143 -94 173 -14 22 -14 27 9 65 14 23
31 42 37 41 9 0 8 -2 -1 -6 -9 -3 -5 -14 13 -35 14 -16 22 -35 19 -40 -5 -7 0
-9 12 -6 16 4 19 -1 20 -33 2 -27 15 -56 45 -101 24 -35 50 -67 57 -71 6 -4
12 -16 12 -26 0 -10 7 -24 15 -31 8 -7 15 -16 15 -21 0 -5 14 -24 31 -42 l32
-32 -25 45 c-14 25 -23 51 -21 58 3 6 1 12 -4 12 -10 0 -29 44 -38 90 -4 19
-16 54 -26 77 -11 23 -19 49 -19 57 0 8 -3 16 -7 18 -11 4 -74 130 -73 146 0
9 -7 11 -21 7 -22 -7 -21 2 6 35 7 8 24 45 38 81 15 37 42 90 62 119 20 29 35
64 35 80 0 16 5 32 12 36 7 5 9 2 5 -9 -3 -8 0 -18 8 -21 7 -2 16 2 19 10 10
27 7 34 -16 34 -13 0 -34 9 -48 20 -14 11 -29 20 -34 20 -4 0 -36 13 -71 30
-34 16 -85 34 -112 40 -32 7 -65 24 -89 44 -22 18 -64 50 -94 70 -30 20 -82
55 -115 79 -59 42 -366 220 -395 229 -11 3 -18 -8 -27 -41 -12 -49 -38 -132
-74 -246 -13 -38 -23 -92 -22 -120 0 -43 4 -52 34 -77 42 -35 34 -37 -12 -2
-19 14 -49 32 -67 40 -19 7 -54 27 -78 44 -25 16 -49 30 -55 30 -5 0 -9 4 -9
9 0 5 -12 14 -28 20 -15 6 -33 20 -39 29 -10 16 -8 18 18 14 23 -3 29 0 33 19
11 50 11 66 -2 82 -12 14 -8 19 38 39 39 17 50 26 47 40 -3 10 0 18 8 18 17 0
40 28 31 38 -4 4 -12 -1 -17 -11 -6 -9 -15 -17 -21 -17 -6 0 -4 8 5 18 25 28
22 50 -4 26 -15 -14 -24 -16 -37 -8 -22 14 -28 44 -9 44 9 0 18 6 20 13 3 6 6
-1 6 -16 1 -16 5 -26 10 -23 16 10 -1 51 -27 64 -33 15 -49 15 -56 0 -3 -7 -4
-1 -1 14 4 23 2 25 -17 20 -17 -4 -20 -2 -15 13 4 9 2 24 -4 31 -6 7 -12 38
-12 69 -1 30 -6 55 -10 55 -14 0 -3 45 11 46 6 1 15 3 20 4 4 1 10 2 15 1 4 0
7 3 7 8 0 5 9 13 20 16 23 7 27 45 5 45 -9 0 -18 7 -21 15 -4 11 -11 12 -24 5
-13 -7 -20 -6 -24 5 -3 8 -12 15 -21 15 -13 0 -15 7 -9 38 8 42 25 58 72 67
17 3 32 10 32 15 0 4 3 15 6 24 4 12 0 16 -16 16 -12 0 -18 -4 -15 -10 10 -16
-25 -25 -46 -12 -26 16 -29 15 -29 -9 0 -21 0 -21 -19 2 -11 13 -17 27 -15 30
2 4 27 14 56 23 29 9 60 20 68 23 8 3 32 5 52 4 32 -2 38 1 44 23 6 26 -1 46
-16 46 -5 0 -10 -8 -12 -17 -3 -14 -7 -12 -18 11 -11 20 -24 30 -43 32 -16 1
-35 8 -43 15 -9 7 -18 8 -26 2 -33 -25 -99 -35 -150 -22 -45 12 -51 12 -59 -4
-6 -10 -22 -17 -39 -17 -26 0 -30 -4 -30 -26 0 -18 -4 -25 -14 -21 -8 3 -18
-5 -25 -19 -14 -33 -14 -57 1 -48 19 12 81 5 97 -10 12 -13 11 -16 -15 -27
-16 -6 -54 -22 -84 -35 -48 -20 -93 -29 -137 -25 -9 1 -10 8 -4 24 12 33 4 44
-29 39 -24 -3 -30 -1 -30 14 0 41 23 151 36 171 8 12 14 30 14 40 0 10 6 30
14 45 21 39 2 54 -24 18z m-555 -1047 c11 -7 33 -13 50 -13 26 -1 28 -2 12
-11 -10 -6 -29 -8 -42 -5 -22 6 -23 4 -18 -29 5 -30 3 -35 -13 -35 -11 1 -30
7 -44 15 -22 12 -22 14 -6 15 18 0 18 1 3 13 -9 6 -19 24 -22 39 -10 39 30 45
80 11z m1390 -293 c3 -6 -1 -7 -9 -4 -18 7 -21 14 -7 14 6 0 13 -4 16 -10z
m95 -94 c0 -5 -7 -1 -15 10 -8 10 -14 24 -14 29 0 6 6 1 14 -9 8 -11 15 -24
15 -30z m-1657 -30 c6 -15 -1 -26 -15 -26 -4 0 -8 9 -8 20 0 23 15 27 23 6z
m1686 -32 c64 -25 75 -51 67 -158 -4 -50 -10 -104 -13 -121 -3 -16 -7 -49 -10
-72 -4 -38 -3 -43 14 -43 30 0 55 34 56 78 2 50 17 44 17 -6 0 -59 -10 -82
-34 -82 -13 0 -28 -12 -40 -33 -11 -18 -21 -27 -23 -19 -3 6 -11 12 -19 12
-15 0 -82 27 -141 58 -39 20 -42 47 -13 107 11 22 20 47 20 55 0 8 7 28 15 44
8 16 18 47 21 70 5 35 35 126 41 126 2 0 20 -7 42 -16z m-2289 -74 c0 -5 -2
-10 -4 -10 -3 0 -8 5 -11 10 -3 6 -1 10 4 10 6 0 11 -4 11 -10z m-585 -153
c-3 -24 -20 -57 -47 -96 -30 -42 -32 -15 -4 42 14 30 26 64 26 77 0 18 3 20
14 11 7 -6 12 -21 11 -34z m270 -10 c-16 -13 -16 -14 -1 -20 9 -4 16 -2 16 3
0 6 5 10 10 10 7 0 7 -6 0 -19 -7 -15 -6 -24 6 -36 9 -9 14 -18 12 -20 -6 -7
-58 18 -58 28 0 4 -6 7 -13 7 -7 0 -18 9 -25 20 -7 11 -20 20 -29 20 -9 0 -13
3 -9 7 3 4 24 6 45 5 22 -2 42 2 46 8 4 6 10 9 13 6 3 -4 -3 -12 -13 -19z
m2634 -439 c7 12 24 -4 49 -46 18 -32 15 -36 -13 -18 -13 9 -33 16 -45 16 -13
0 -20 7 -20 19 0 11 -9 22 -19 26 -11 3 -22 12 -25 20 -3 9 6 7 31 -7 24 -15
37 -18 42 -10z m-2642 -34 c-3 -3 -12 -4 -19 -1 -8 3 -5 6 6 6 11 1 17 -2 13
-5z m2523 -105 c0 -10 11 -20 25 -23 16 -4 25 -13 25 -25 0 -11 10 -28 23 -38
13 -10 26 -26 30 -36 6 -16 18 -17 94 -15 l88 3 3 -41 3 -41 -57 -6 c-31 -3
-58 -8 -60 -10 -3 -2 4 -27 15 -55 11 -29 18 -58 15 -66 -3 -8 0 -17 5 -21 16
-9 3 -25 -14 -18 -20 7 -19 -7 0 -21 13 -9 11 -11 -10 -12 -15 -1 -22 2 -18 9
3 5 -2 16 -11 23 -10 7 -17 15 -16 18 3 15 -26 66 -37 66 -7 0 -13 9 -13 20 0
46 -28 68 -96 75 -63 7 -64 8 -73 43 -12 42 -8 51 21 45 27 -4 58 13 43 25 -6
4 -29 33 -53 64 -31 42 -42 67 -42 92 l0 35 55 -37 c30 -20 55 -44 55 -53z
m-2730 -15 c0 -8 -4 -12 -10 -9 -5 3 -10 13 -10 21 0 8 5 12 10 9 6 -3 10 -13
10 -21z m-460 -191 c0 -7 -4 -13 -10 -13 -5 0 -10 8 -10 18 0 10 -6 24 -12 32
-7 8 -3 6 10 -4 12 -11 22 -25 22 -33z m1980 31 c0 -8 -5 -12 -10 -9 -6 4 -8
11 -5 16 9 14 15 11 15 -7z m-1436 -10 c3 -8 2 -12 -4 -9 -6 3 -10 10 -10 16
0 14 7 11 14 -7z m-521 -54 c3 -11 1 -20 -4 -20 -5 0 -9 9 -9 20 0 11 2 20 4
20 2 0 6 -9 9 -20z m1981 -16 c0 -17 7 -34 18 -42 10 -7 18 -23 18 -36 0 -12
5 -27 12 -34 9 -9 7 -12 -11 -12 -16 0 -21 5 -18 14 3 7 1 18 -5 24 -14 14
-38 80 -38 105 0 11 5 17 13 14 6 -2 12 -17 11 -33z m-1910 -66 c17 -24 65
-83 104 -126 12 -14 20 -27 18 -29 -8 -9 -46 8 -41 17 3 5 -3 17 -15 27 -11
10 -20 23 -20 29 0 6 -11 19 -24 30 -14 10 -23 21 -20 26 3 4 -1 8 -8 8 -22 0
-41 17 -34 29 11 17 23 13 40 -11z m2198 -53 c3 -14 2 -28 -2 -30 -4 -3 -10 9
-12 25 -5 36 8 40 14 5z m-219 -47 c11 -15 18 -30 15 -33 -10 -11 -33 6 -50
36 -16 28 -16 30 -2 27 10 -2 26 -15 37 -30z m230 -17 c-3 -10 0 -22 6 -25 6
-4 11 -18 11 -31 0 -13 5 -27 10 -30 6 -3 10 -17 10 -31 0 -13 6 -24 13 -25
10 0 10 -2 0 -6 -14 -5 -17 -41 -5 -59 4 -7 15 -13 24 -15 14 -3 15 -7 3 -22
-9 -13 -20 -16 -39 -11 -25 6 -25 7 -9 20 17 13 17 13 0 14 -15 0 -16 3 -7 20
6 11 7 20 3 20 -4 0 -13 11 -20 25 -9 20 -8 25 2 25 11 0 11 6 2 33 -7 17 -15
34 -18 37 -8 7 2 80 11 80 5 0 6 -8 3 -19z m-2068 -61 c3 -5 1 -10 -4 -10 -6
0 -11 5 -11 10 0 6 2 10 4 10 3 0 8 -4 11 -10z m1865 -21 c0 -19 -1 -19 -16
-5 -8 9 -12 20 -9 26 9 15 25 2 25 -21z m-1835 -9 c3 -5 1 -10 -4 -10 -6 0
-11 5 -11 10 0 6 2 10 4 10 3 0 8 -4 11 -10z m1845 -30 c0 -5 -4 -10 -10 -10
-5 0 -10 5 -10 10 0 6 5 10 10 10 6 0 10 -4 10 -10z m-1874 -76 c13 -14 24
-28 24 -32 0 -4 16 -24 35 -44 18 -21 30 -38 26 -38 -12 0 -73 59 -104 103
-32 42 -17 51 19 11z m2174 -74 c-20 -13 -33 -13 -25 0 3 6 14 10 23 10 15 0
15 -2 2 -10z m-130 -10 c0 -5 -4 -10 -10 -10 -5 0 -10 5 -10 10 0 6 5 10 10
10 6 0 10 -4 10 -10z m98 -32 c18 -10 39 -18 47 -18 7 0 17 -4 20 -10 3 -5 0
-7 -8 -4 -17 6 -31 -24 -19 -40 5 -6 12 -19 15 -29 6 -15 2 -16 -21 -11 -15 4
-34 12 -42 19 -8 8 -32 16 -53 20 -20 4 -40 12 -44 18 -4 6 4 8 23 3 79 -17
94 -18 94 -6 0 7 -7 10 -15 6 -9 -3 -15 0 -15 10 0 11 -6 14 -22 8 -22 -6 -22
-6 2 15 25 22 25 22 3 18 -13 -3 -23 -1 -23 4 0 5 -4 9 -9 9 -5 0 -7 -9 -4
-20 3 -11 0 -20 -6 -20 -6 0 -11 7 -11 15 0 8 -5 15 -11 15 -8 0 -8 4 0 14 14
16 53 10 99 -16z m-59 -98 c31 -11 74 -29 96 -40 21 -11 45 -20 52 -20 7 0 13
-4 13 -9 0 -5 16 -15 35 -21 19 -6 53 -30 76 -53 40 -41 40 -42 17 -48 -16 -3
-35 4 -62 23 -21 15 -54 30 -72 34 -19 3 -34 10 -34 15 0 5 -7 9 -15 9 -8 0
-15 6 -15 13 0 8 -4 7 -11 -3 -8 -11 -12 -12 -16 -2 -2 6 -9 10 -13 7 -5 -3
-16 5 -24 17 l-16 22 -1 -24 -1 -25 -7 25 -7 25 -7 -25 -8 -25 -14 30 c-12 27
-13 28 -14 8 -1 -13 -5 -23 -11 -23 -5 0 -11 10 -11 23 l-2 22 -4 -23 c-3 -13
-10 -21 -16 -19 -16 5 -22 57 -7 57 6 0 8 5 4 12 -5 8 -1 9 12 4 15 -6 17 -5
7 5 -34 34 -3 37 76 9z m-121 -63 c4 -29 -12 -37 -22 -11 -10 26 -7 46 7 42 6
-3 13 -17 15 -31z m-93 -2 c0 -14 -3 -25 -7 -25 -5 0 -8 11 -8 25 0 14 3 25 8
25 4 0 7 -11 7 -25z m45 -2 c0 -22 -2 -25 -10 -13 -13 20 -13 40 0 40 6 0 10
-12 10 -27z m-2037 10 c-7 -2 -19 -2 -25 0 -7 3 -2 5 12 5 14 0 19 -2 13 -5z
m1804 -15 c-3 -8 -6 -5 -6 6 -1 11 2 17 5 13 3 -3 4 -12 1 -19z m90 -10 c-3
-7 -5 -2 -5 12 0 14 2 19 5 13 2 -7 2 -19 0 -25z m520 26 c-3 -3 -12 -4 -19
-1 -8 3 -5 6 6 6 11 1 17 -2 13 -5z m2150 -16 c-3 -8 -6 -5 -6 6 -1 11 2 17 5
13 3 -3 4 -12 1 -19z m-2590 -80 c-2 -13 -4 -5 -4 17 -1 22 1 32 4 23 2 -10 2
-28 0 -40z m52 5 c1 -7 -3 -13 -9 -13 -5 0 -10 15 -9 33 0 27 2 29 9 12 5 -11
9 -26 9 -32z m41 11 c0 -13 -4 -24 -10 -24 -5 0 -10 14 -10 31 0 17 4 28 10
24 6 -3 10 -17 10 -31z m40 -12 c0 -13 -4 -20 -10 -17 -5 3 -10 21 -10 38 0
24 3 28 10 17 5 -8 10 -25 10 -38z m39 -4 c1 -10 -3 -18 -9 -18 -5 0 -10 17
-9 38 0 30 2 33 9 17 5 -11 9 -28 9 -37z m30 10 c-1 -31 -1 -31 -8 -8 -5 14
-6 28 -4 33 9 15 13 6 12 -25z m-289 12 c0 -5 -2 -10 -4 -10 -3 0 -8 5 -11 10
-3 6 -1 10 4 10 6 0 11 -4 11 -10z m330 0 c11 18 30 3 30 -24 0 -19 -4 -22
-30 -18 -20 3 -30 10 -30 21 0 22 13 36 19 20 2 -8 5 -8 11 1z m-420 -9 c0 -6
-4 -13 -10 -16 -5 -3 -10 1 -10 9 0 9 5 16 10 16 6 0 10 -4 10 -9z m50 5 c0
-11 -19 -15 -25 -6 -3 5 1 10 9 10 9 0 16 -2 16 -4z m430 -21 c0 -14 -4 -25
-10 -25 -5 0 -10 11 -10 25 0 14 5 25 10 25 6 0 10 -11 10 -25z m67 -3 c49
-14 188 -105 197 -128 8 -22 -22 -11 -85 32 -28 19 -62 37 -75 40 -13 3 -24
10 -24 16 0 5 -9 7 -19 3 -11 -3 -22 -1 -26 5 -3 6 -11 8 -16 5 -5 -4 -9 9 -9
27 0 18 4 28 8 23 4 -6 26 -17 49 -23z m-1840 -14 c-3 -7 -5 -2 -5 12 0 14 2
19 5 13 2 -7 2 -19 0 -25z m1240 10 c-3 -8 -6 -5 -6 6 -1 11 2 17 5 13 3 -3 4
-12 1 -19z m513 -38 c66 -11 190 -57 190 -71 0 -4 8 -10 18 -13 10 -4 34 -17
52 -31 l34 -25 -34 6 c-19 4 -41 12 -48 17 -10 8 -16 7 -23 -4 -8 -11 -9 -9
-5 7 8 27 -35 70 -61 60 -16 -7 -16 -9 7 -28 l25 -21 -35 8 c-55 11 -91 29
-85 42 2 7 0 13 -6 13 -6 0 -18 7 -27 16 -14 15 -17 15 -28 0 -11 -15 -14 -15
-39 9 -32 28 -28 29 65 15z m-2967 -30 c3 -11 1 -20 -4 -20 -5 0 -9 9 -9 20 0
11 2 20 4 20 2 0 6 -9 9 -20z m24 -12 c-3 -8 -6 -5 -6 6 -1 11 2 17 5 13 3 -3
4 -12 1 -19z m81 -85 c16 -16 16 -16 0 -10 -10 3 -20 2 -23 -4 -9 -14 -25 -1
-18 16 7 20 21 19 41 -2z m3082 -54 c0 -5 5 -9 11 -9 18 0 41 -28 28 -36 -6
-3 -14 -2 -18 3 -7 11 -42 27 -56 25 -5 -1 -18 9 -27 22 l-17 24 39 -10 c22
-6 40 -14 40 -19z"/>
<path d="M3630 550 c0 -5 5 -10 11 -10 5 0 7 5 4 10 -3 6 -8 10 -11 10 -2 0
-4 -4 -4 -10z"/>
<path d="M3697 224 c6 -16 19 -18 27 -5 3 5 -3 11 -13 14 -14 3 -18 1 -14 -9z"/>
<path d="M4145 3610 c3 -5 13 -10 21 -10 8 0 14 5 14 10 0 6 -9 10 -21 10 -11
0 -17 -4 -14 -10z"/>
<path d="M3723 3603 c-7 -2 -13 -9 -13 -14 0 -12 33 -12 46 0 5 5 23 11 39 14
21 3 17 4 -15 5 -25 0 -51 -2 -57 -5z"/>
<path d="M3186 2785 c-9 -26 -7 -32 5 -12 6 10 9 21 6 23 -2 3 -7 -2 -11 -11z"/>
<path d="M2788 2326 c-4 -17 -1 -23 9 -19 15 6 18 29 4 37 -5 3 -11 -5 -13
-18z"/>
<path d="M1840 2258 c-19 -5 -39 -13 -45 -18 -5 -4 -30 -13 -55 -20 -43 -12
-95 -40 -73 -40 14 0 145 50 158 60 6 4 30 12 55 18 25 5 34 10 20 10 -14 0
-41 -4 -60 -10z"/>
<path d="M5375 1848 c8 -129 25 -187 101 -355 8 -17 14 -34 14 -38 0 -4 9 -26
19 -49 10 -23 31 -70 46 -106 14 -36 33 -78 40 -95 7 -16 25 -59 40 -95 69
-169 125 -281 159 -319 9 -10 16 -24 16 -32 0 -30 39 -74 71 -79 26 -4 34 -12
49 -50 10 -25 24 -44 30 -42 8 2 11 -5 7 -19 -4 -15 -3 -19 5 -11 13 13 -6 73
-32 97 -10 9 -16 23 -13 31 3 8 -1 22 -9 32 -8 9 -26 36 -38 60 -13 23 -27 42
-32 42 -4 0 -8 6 -8 14 0 8 -6 16 -14 19 -7 3 -16 25 -20 48 -4 24 -13 57 -20
73 -8 17 -16 40 -19 51 -8 31 -46 136 -63 172 -7 17 -14 38 -14 46 0 9 -4 18
-9 21 -5 4 -19 35 -30 71 -12 36 -32 89 -46 119 -14 30 -25 58 -25 62 0 7 -35
90 -73 174 -41 93 -80 165 -93 176 -8 6 -14 14 -14 18 0 4 -7 14 -15 22 -13
13 -14 6 -10 -58z m504 -1119 c5 -16 6 -31 1 -34 -10 -6 -61 81 -52 89 9 10
40 -24 51 -55z"/>
<path d="M5605 1730 c4 -14 13 -34 20 -46 7 -11 20 -43 28 -70 9 -27 27 -80
42 -119 14 -38 32 -104 40 -145 20 -100 48 -203 75 -270 12 -30 28 -73 35 -95
7 -22 20 -53 29 -70 9 -16 16 -36 16 -42 0 -13 30 -85 61 -145 10 -20 19 -44
19 -53 0 -9 4 -14 10 -10 6 4 6 15 0 31 -15 37 -12 52 8 49 9 -1 11 0 5 2 -7
3 -13 12 -14 21 -3 74 -13 140 -24 163 -8 15 -17 46 -21 70 -3 24 -13 55 -21
68 -9 13 -17 44 -20 70 -3 25 -11 57 -18 71 -6 14 -15 39 -19 55 -22 92 -95
235 -120 235 -7 0 -20 24 -30 53 -11 28 -25 59 -32 68 -8 8 -14 20 -14 25 0 5
-14 32 -31 59 -17 29 -27 39 -24 25z"/>
<path d="M5570 1701 c0 -11 37 -107 72 -191 11 -25 24 -54 28 -65 5 -11 19
-44 31 -74 13 -30 24 -50 26 -44 5 14 -67 224 -110 324 -17 37 -47 70 -47 50z"/>
<path d="M5877 635 c9 -19 20 -35 25 -35 11 0 10 7 -7 40 -22 42 -38 37 -18
-5z"/>
<path d="M6097 590 c-7 -26 8 -70 23 -70 15 0 12 53 -3 75 -13 17 -14 17 -20
-5z"/>
<path d="M551 271 c-8 -5 -9 -11 -3 -15 5 -3 12 1 16 9 6 17 6 18 -13 6z"/>
<path d="M570 214 c0 -8 5 -12 10 -9 6 3 10 10 10 16 0 5 -4 9 -10 9 -5 0 -10
-7 -10 -16z"/>
</g>
</svg>
